# xmcd
#
# Track frame offsets:
#	150
#	11789
#	19077
#	31285
#	45782
#	60215
#	75837
#	87838
#	101436
#	124332
#
# Disc length: 2012 seconds
#
# Revision: 0
# Processed by: cddbd v1.5.2PL0 Copyright (c) Steve Scherf et al.
# Submitted via: EasyCDDAExtractor 15.3.0.1
#
DISCID=6207da0a
DTITLE=Michael Nesmith and The First National Band - Magnetic South (Quad)
DYEAR=1970
DGENRE=Country Rock
TTITLE0=Calico Girlfriend
TTITLE1=Nine Times Blue
TTITLE2=Little Red Rider
TTITLE3=The Crippled Lion
TTITLE4=Joanne
TTITLE5=First National Rag
TTITLE6=Mama Nantucket
TTITLE7=Keys To The Car
TTITLE8=Hollywood
TTITLE9=One Rose
EXTD=
EXTT0=
EXTT1=
EXTT2=
EXTT3=
EXTT4=
EXTT5=
EXTT6=
EXTT7=
EXTT8=
EXTT9=
PLAYORDER=
